# xmcd CD database file
# Copyright (C) 1993-1998 Ti Kan
#
# Track frame offsets:
# 150
# 16385
# 33692
# 52287
# 75628
# 91330
# 105352
# 121151
# 141139
# 160343
# 178226
# 211194
# 228971
# 246482
# 261741
# 273313
# 285561
# 299836
# 316564
#
# Disc length: 4435 seconds
#
# Revision: 1
# Processed by: cddbd v1.4b41PL1 Copyright (c) Steve Scherf et al.
# Submitted via: MediaSauce 1.5 http://www.flatcracker.com
#
DISCID=1c115113
DTITLE=Various Artists #2 - Various Artists #2
DYEAR=1900
DGENRE=
TTITLE0=THE MAVERICKS FOOLISH HEART
TTITLE1=LEEANN RIMES NEED YOU
TTITLE2=JOHN MICHAEL ROPE THE MOON
TTITLE3=COMMON THREAD NEW KID IN TOWN
TTITLE4=DAVID KIRSH - GOODNIGHT SWEETHEART
TTITLE5=HAL KETCHUM I SAW THE LIGHT
TTITLE6=THE MAVERICKS MISSING YOU
TTITLE7=JOHN MICHAEL MONTGOMERY I SWEAR
TTITLE8=VINCE GILL SOUTH SIDE OF DIXIE
TTITLE9=THE TRACTORS BABY LIKES TO ROCK IT
TTITLE10=GARTH PINA COLADA REBA SEE HIM
TTITLE11=JOHN MICHAEL I CAN LOVE YOU LIKE THAT
TTITLE12=COMMON THREAD CLINT BLACK DESPERADO
TTITLE13=GEORGE STRAIT THE MAN IN LOVE WITH YOU
TTITLE14=JOHN MICHAEL SOLD (THE GRUNDY AFFAIR)
TTITLE15=HANK WILIAMS JR  BORN TO BOOGIE
TTITLE16=MARK WILLIS I DO
TTITLE17=GARTH BROOKS THE DANCE
TTITLE18=GEORGE STRAIT WE MUST BE LOVING RIGHT
EXTD=
EXTT0=
EXTT1=
EXTT2=
EXTT3=
EXTT4=
EXTT5=
EXTT6=
EXTT7=
EXTT8=
EXTT9=
EXTT10=
EXTT11=
EXTT12=
EXTT13=
EXTT14=
EXTT15=
EXTT16=
EXTT17=
EXTT18=
PLAYORDER=
